<svg xmlns="http://www.w3.org/2000/svg" xmlns:xlink="http://www.w3.org/1999/xlink" contentStyleType="text/css" data-diagram-type="DESCRIPTION" height="947px" preserveAspectRatio="none" style="width:1583px;height:947px;background:#FFFFFF;" version="1.1" viewBox="0 0 1583 947" width="1583px" zoomAndPan="magnify"><title>&#24320;&#21457;&#35270;&#22270;&#65306;&#25277;&#35937;&#20837;&#21475;&#32487;&#25215;&#20307;&#31995;&#19982;&#25968;&#25454;&#28304;&#24037;&#21378;</title><defs/><g><g class="title" data-source-line="2"><text fill="#000000" font-family="sans-serif" font-size="14" font-weight="bold" lengthAdjust="spacing" textLength="266" x="564.75" y="23.5352">&#24320;&#21457;&#35270;&#22270;&#65306;&#25277;&#35937;&#20837;&#21475;&#32487;&#25215;&#20307;&#31995;&#19982;&#25968;&#25454;&#28304;&#24037;&#21378;</text></g><!--cluster metadata-bootstrap--><g class="cluster" data-entity="metadata-bootstrap" data-source-line="9" data-uid="ent0002" id="cluster_metadata-bootstrap"><rect fill="none" height="71" rx="2.5" ry="2.5" style="stroke:#181818;stroke-width:1;" width="352" x="737.3433" y="41.4883"/><text fill="#000000" font-family="sans-serif" font-size="14" font-weight="bold" lengthAdjust="spacing" textLength="146.3301" x="840.1783" y="57.0234">metadata-bootstrap</text></g><!--cluster metadata-entry--><g class="cluster" data-entity="metadata-entry" data-source-line="14" data-uid="ent0005" id="cluster_metadata-entry"><rect fill="none" height="206" rx="2.5" ry="2.5" style="stroke:#181818;stroke-width:1;" width="382" x="1041.3433" y="131.4883"/><text fill="#000000" font-family="sans-serif" font-size="14" font-weight="bold" lengthAdjust="spacing" textLength="113.6338" x="1175.5264" y="147.0234">metadata-entry</text></g><!--cluster metadata-core?????????????--><g class="cluster" data-entity="metadata-core............." data-source-line="24" data-uid="ent0013" id="cluster_metadata-core............."><rect fill="none" height="294.5" rx="2.5" ry="2.5" style="stroke:#181818;stroke-width:1;" width="374" x="659.3433" y="257.9883"/><text fill="#000000" font-family="sans-serif" font-size="14" font-weight="bold" lengthAdjust="spacing" textLength="288.9961" x="701.8452" y="273.5234">metadata-core&#65288;&#19981;&#20381;&#36182;&#20855;&#20307;&#29983;&#24577;&#21644;&#25968;&#25454;&#28304;&#65289;</text></g><!--cluster metadata-search--><g class="cluster" data-entity="metadata-search" data-source-line="31" data-uid="ent0018" id="cluster_metadata-search"><rect fill="none" height="468.5" rx="2.5" ry="2.5" style="stroke:#181818;stroke-width:1;" width="182" x="346.3433" y="472.9883"/><text fill="#000000" font-family="sans-serif" font-size="14" font-weight="bold" lengthAdjust="spacing" textLength="123.3955" x="375.6455" y="488.5234">metadata-search</text></g><!--cluster metadata-datasource--><g class="cluster" data-entity="metadata-datasource" data-source-line="39" data-uid="ent0024" id="cluster_metadata-datasource"><rect fill="none" height="262" rx="2.5" ry="2.5" style="stroke:#181818;stroke-width:1;" width="541" x="536.3433" y="589.4883"/><text fill="#000000" font-family="sans-serif" font-size="14" font-weight="bold" lengthAdjust="spacing" textLength="155.5176" x="729.0845" y="605.0234">metadata-datasource</text></g><g class="entity" data-entity="GMN49" data-source-line="68" data-uid="ent0050" id="entity_GMN49"><path d="M751.8433,156.9883 L751.8433,212.9199 A0,0 0 0 0 751.8433,212.9199 L1030.9644,212.9199 A0,0 0 0 0 1030.9644,212.9199 L1030.9644,188.9883 L1049.1637,184.9883 L1030.9644,180.9883 L1030.9644,166.9883 L1020.9644,156.9883 L751.8433,156.9883 A0,0 0 0 0 751.8433,156.9883" fill="#FEFFDD" style="stroke:#181818;stroke-width:0.5;"/><path d="M1020.9644,156.9883 L1020.9644,166.9883 L1030.9644,166.9883 L1020.9644,156.9883" fill="#FEFFDD" style="stroke:#181818;stroke-width:0.5;"/><text fill="#000000" font-family="sans-serif" font-size="13" lengthAdjust="spacing" textLength="91" x="757.8433" y="174.5566">&#20837;&#21475;&#25193;&#23637;&#35268;&#21017;&#65306;</text><text fill="#000000" font-family="sans-serif" font-size="13" lengthAdjust="spacing" textLength="258.1211" x="757.8433" y="189.8672">&#26032;&#22686;&#29983;&#24577; = &#32487;&#25215;&#32479;&#19968;&#25277;&#35937;&#31867; + &#23454;&#29616;&#24046;&#24322;&#26041;&#27861;</text><text fill="#000000" font-family="sans-serif" font-size="13" lengthAdjust="spacing" textLength="221" x="757.8433" y="205.1777">&#20844;&#20849;&#20837;&#21475;&#36923;&#36753;&#19981;&#24471;&#22312;&#20855;&#20307;&#20837;&#21475;&#37325;&#22797;&#23454;&#29616;</text></g><g class="entity" data-entity="GMN52" data-source-line="74" data-uid="ent0053" id="entity_GMN52"><path d="M32.8433,606.4883 L32.8433,662.4199 A0,0 0 0 0 32.8433,662.4199 L337.9644,662.4199 A0,0 0 0 0 337.9644,662.4199 L337.9644,616.4883 L327.9644,606.4883 L246.9835,606.4883 L597.9302,616.2051 L238.9835,606.4883 L32.8433,606.4883 A0,0 0 0 0 32.8433,606.4883" fill="#FEFFDD" style="stroke:#181818;stroke-width:0.5;"/><path d="M327.9644,606.4883 L327.9644,616.4883 L337.9644,616.4883 L327.9644,606.4883" fill="#FEFFDD" style="stroke:#181818;stroke-width:0.5;"/><text fill="#000000" font-family="sans-serif" font-size="13" lengthAdjust="spacing" textLength="91" x="38.8433" y="624.0566">&#24213;&#23618;&#25193;&#23637;&#35268;&#21017;&#65306;</text><text fill="#000000" font-family="sans-serif" font-size="13" lengthAdjust="spacing" textLength="284.1211" x="38.8433" y="639.3672">&#26032;&#22686;&#25968;&#25454;&#28304; = &#23454;&#29616;&#32479;&#19968;&#25968;&#25454;&#28304;&#25277;&#35937; + &#27880;&#20876;&#21040;&#24037;&#21378;</text><text fill="#000000" font-family="sans-serif" font-size="13" lengthAdjust="spacing" textLength="156" x="38.8433" y="654.6777">&#19978;&#23618;&#21482;&#20381;&#36182;&#24037;&#21378;&#21644;&#25277;&#35937;&#31867;&#22411;</text></g><g class="entity" data-entity="GMN55" data-source-line="80" data-uid="ent0056" id="entity_GMN55"><path d="M34.3433,497.4883 L34.3433,538.1094 A0,0 0 0 0 34.3433,538.1094 L338.6138,538.1094 A0,0 0 0 0 338.6138,538.1094 L338.6138,507.4883 L328.6138,497.4883 L235.0974,497.4883 L712.4484,491.3304 L227.0974,497.4883 L34.3433,497.4883 A0,0 0 0 0 34.3433,497.4883" fill="#FEFFDD" style="stroke:#181818;stroke-width:0.5;"/><path d="M328.6138,497.4883 L328.6138,507.4883 L338.6138,507.4883 L328.6138,497.4883" fill="#FEFFDD" style="stroke:#181818;stroke-width:0.5;"/><text fill="#000000" font-family="sans-serif" font-size="13" lengthAdjust="spacing" textLength="283.2705" x="40.3433" y="515.0566">&#20381;&#36182;&#26041;&#21521;&#65306;&#20837;&#21475;&#23454;&#29616; / &#25968;&#25454;&#28304;&#23454;&#29616; &#8594; &#25277;&#35937;&#19982;&#26680;&#24515;</text><text fill="#000000" font-family="sans-serif" font-size="13" lengthAdjust="spacing" textLength="237.3389" x="40.3433" y="530.3672">&#26680;&#24515;&#19981;&#24471;&#24341;&#29992;&#20855;&#20307;&#29983;&#24577;&#25110;&#20855;&#20307;&#25968;&#25454;&#28304; SDK</text></g><!--entity app--><g class="entity" data-entity="app" data-source-line="10" data-uid="ent0003" id="entity_app"><rect fill="#F1F1F1" height="36.4883" rx="2.5" ry="2.5" style="stroke:#181818;stroke-width:0.5;" width="145.4941" x="745.8433" y="68.4883"/><text fill="#000000" font-family="sans-serif" font-size="14" lengthAdjust="spacing" textLength="125.4941" x="755.8433" y="92.0234">metadata-api-app</text></g><!--entity worker--><g class="entity" data-entity="worker" data-source-line="11" data-uid="ent0004" id="entity_worker"><rect fill="#F1F1F1" height="36.4883" rx="2.5" ry="2.5" style="stroke:#181818;stroke-width:0.5;" width="171.7305" x="909.3433" y="68.4883"/><text fill="#000000" font-family="sans-serif" font-size="14" lengthAdjust="spacing" textLength="151.7305" x="919.3433" y="92.0234">metadata-worker-app</text></g><!--entity baseEntry--><g class="entity" data-entity="baseEntry" data-source-line="15" data-uid="ent0006" id="entity_baseEntry"><rect fill="#F1F1F1" height="52.9766" rx="2.5" ry="2.5" style="stroke:#181818;stroke-width:0.5;" width="173.6035" x="1049.3433" y="158.4883"/><text fill="#000000" font-family="sans-serif" font-size="14" lengthAdjust="spacing" textLength="153.6035" x="1059.3433" y="182.0234">AbstractMetadataEntry</text><text fill="#000000" font-family="sans-serif" font-size="14" lengthAdjust="spacing" textLength="69.4531" x="1059.3433" y="198.5117">&#171;abstract&#187;</text></g><!--entity cgrav--><g class="entity" data-entity="cgrav" data-source-line="16" data-uid="ent0007" id="entity_cgrav"><rect fill="#F1F1F1" height="36.4883" rx="2.5" ry="2.5" style="stroke:#181818;stroke-width:0.5;" width="115.9971" x="1175.3433" y="293.4883"/><text fill="#000000" font-family="sans-serif" font-size="14" lengthAdjust="spacing" textLength="95.9971" x="1185.3433" y="317.0234">GravitinoEntry</text></g><!--entity cice--><g class="entity" data-entity="cice" data-source-line="17" data-uid="ent0008" id="entity_cice"><rect fill="#F1F1F1" height="36.4883" rx="2.5" ry="2.5" style="stroke:#181818;stroke-width:0.5;" width="104.6289" x="1309.8433" y="293.4883"/><text fill="#000000" font-family="sans-serif" font-size="14" lengthAdjust="spacing" textLength="84.6289" x="1319.8433" y="317.0234">IcebergEntry</text></g><!--entity cint--><g class="entity" data-entity="cint" data-source-line="18" data-uid="ent0009" id="entity_cint"><rect fill="#F1F1F1" height="36.4883" rx="2.5" ry="2.5" style="stroke:#181818;stroke-width:0.5;" width="106.5088" x="1049.8433" y="293.4883"/><text fill="#000000" font-family="sans-serif" font-size="14" lengthAdjust="spacing" textLength="86.5088" x="1059.8433" y="317.0234">InternalEntry</text></g><!--entity domain--><g class="entity" data-entity="domain" data-source-line="25" data-uid="ent0014" id="entity_domain"><rect fill="#F1F1F1" height="52.9766" rx="2.5" ry="2.5" style="stroke:#181818;stroke-width:0.5;" width="164.4023" x="667.3433" y="491.4883"/><text fill="#000000" font-family="sans-serif" font-size="14" lengthAdjust="spacing" textLength="122.3975" x="677.3433" y="515.0234">metadata-domain</text><text fill="#000000" font-family="sans-serif" font-size="14" lengthAdjust="spacing" textLength="144.4023" x="677.3433" y="531.5117">&#20869;&#37096;&#27169;&#22411; / &#35268;&#21017; / &#31867;&#22411;</text></g><!--entity application--><g class="entity" data-entity="application" data-source-line="26" data-uid="ent0015" id="entity_application"><rect fill="#F1F1F1" height="52.9766" rx="2.5" ry="2.5" style="stroke:#181818;stroke-width:0.5;" width="178.6963" x="667.8433" y="392.9883"/><text fill="#000000" font-family="sans-serif" font-size="14" lengthAdjust="spacing" textLength="146.3711" x="677.8433" y="416.5234">metadata-application</text><text fill="#000000" font-family="sans-serif" font-size="14" lengthAdjust="spacing" textLength="158.6963" x="677.8433" y="433.0117">Command / Query &#29992;&#20363;</text></g><!--entity mapping--><g class="entity" data-entity="mapping" data-source-line="27" data-uid="ent0016" id="entity_mapping"><rect fill="#F1F1F1" height="52.9766" rx="2.5" ry="2.5" style="stroke:#181818;stroke-width:0.5;" width="153.6834" x="823.3433" y="284.9883"/><text fill="#000000" font-family="sans-serif" font-size="14" lengthAdjust="spacing" textLength="131.3389" x="833.3433" y="308.5234">metadata-mapping</text><text fill="#000000" font-family="sans-serif" font-size="14" lengthAdjust="spacing" textLength="133.6834" x="833.3433" y="325.0117">&#29983;&#24577;&#23545;&#35937; &#8596; &#20869;&#37096;&#27169;&#22411;</text></g><!--entity events--><g class="entity" data-entity="events" data-source-line="28" data-uid="ent0017" id="entity_events"><rect fill="#F1F1F1" height="52.9766" rx="2.5" ry="2.5" style="stroke:#181818;stroke-width:0.5;" width="175.4287" x="849.8433" y="491.4883"/><text fill="#000000" font-family="sans-serif" font-size="14" lengthAdjust="spacing" textLength="115.3564" x="859.8433" y="515.0234">metadata-events</text><text fill="#000000" font-family="sans-serif" font-size="14" lengthAdjust="spacing" textLength="155.4287" x="859.8433" y="531.5117">&#21464;&#26356;&#20107;&#20214; / Outbox &#22865;&#32422;</text></g><!--entity qplanner--><g class="entity" data-entity="qplanner" data-source-line="32" data-uid="ent0019" id="entity_qplanner"><rect fill="#F1F1F1" height="36.4883" rx="2.5" ry="2.5" style="stroke:#181818;stroke-width:0.5;" width="117.9385" x="400.3433" y="499.9883"/><text fill="#000000" font-family="sans-serif" font-size="14" lengthAdjust="spacing" textLength="97.9385" x="410.3433" y="523.5234">query-planner</text></g><!--entity indexmodel--><g class="entity" data-entity="indexmodel" data-source-line="33" data-uid="ent0020" id="entity_indexmodel"><rect fill="#F1F1F1" height="52.9766" rx="2.5" ry="2.5" style="stroke:#181818;stroke-width:0.5;" width="132" x="371.3433" y="607.9883"/><text fill="#000000" font-family="sans-serif" font-size="14" lengthAdjust="spacing" textLength="88.3613" x="381.3433" y="631.5234">index-model</text><text fill="#000000" font-family="sans-serif" font-size="14" lengthAdjust="spacing" textLength="112" x="381.3433" y="648.0117">&#20845;&#31867;&#32034;&#24341;&#25991;&#26723;&#27169;&#22411;</text></g><!--entity template--><g class="entity" data-entity="template" data-source-line="34" data-uid="ent0021" id="entity_template"><rect fill="#F1F1F1" height="36.4883" rx="2.5" ry="2.5" style="stroke:#181818;stroke-width:0.5;" width="125.7656" x="374.3433" y="725.9883"/><text fill="#000000" font-family="sans-serif" font-size="14" lengthAdjust="spacing" textLength="105.7656" x="384.3433" y="749.5234">index-template</text></g><!--entity governance--><g class="entity" data-entity="governance" data-source-line="35" data-uid="ent0022" id="entity_governance"><rect fill="#F1F1F1" height="36.4883" rx="2.5" ry="2.5" style="stroke:#181818;stroke-width:0.5;" width="166.1729" x="354.3433" y="807.4883"/><text fill="#000000" font-family="sans-serif" font-size="14" lengthAdjust="spacing" textLength="146.1729" x="364.3433" y="831.0234">mapping-governance</text></g><!--entity lifecycle--><g class="entity" data-entity="lifecycle" data-source-line="36" data-uid="ent0023" id="entity_lifecycle"><rect fill="#F1F1F1" height="52.9766" rx="2.5" ry="2.5" style="stroke:#181818;stroke-width:0.5;" width="136.4023" x="369.3433" y="880.4883"/><text fill="#000000" font-family="sans-serif" font-size="14" lengthAdjust="spacing" textLength="100.5771" x="379.3433" y="904.0234">index-lifecycle</text><text fill="#000000" font-family="sans-serif" font-size="14" lengthAdjust="spacing" textLength="116.4023" x="379.3433" y="920.5117">&#21035;&#21517; / &#29256;&#26412; / &#37325;&#24314;</text></g><!--entity factory--><g class="entity" data-entity="factory" data-source-line="40" data-uid="ent0025" id="entity_factory"><rect fill="#F1F1F1" height="36.4883" rx="2.5" ry="2.5" style="stroke:#181818;stroke-width:0.5;" width="146" x="544.3433" y="616.4883"/><text fill="#000000" font-family="sans-serif" font-size="14" lengthAdjust="spacing" textLength="126" x="554.3433" y="640.0234">DataSourceFactory</text></g><!--entity baseDS--><g class="entity" data-entity="baseDS" data-source-line="41" data-uid="ent0026" id="entity_baseDS"><rect fill="#F1F1F1" height="52.9766" rx="2.5" ry="2.5" style="stroke:#181818;stroke-width:0.5;" width="153.4238" x="650.8433" y="717.4883"/><text fill="#000000" font-family="sans-serif" font-size="14" lengthAdjust="spacing" textLength="133.4238" x="660.8433" y="741.0234">AbstractDataSource</text><text fill="#000000" font-family="sans-serif" font-size="14" lengthAdjust="spacing" textLength="69.4531" x="660.8433" y="757.5117">&#171;abstract&#187;</text></g><!--entity dsSR--><g class="entity" data-entity="dsSR" data-source-line="42" data-uid="ent0027" id="entity_dsSR"><rect fill="#F1F1F1" height="36.4883" rx="2.5" ry="2.5" style="stroke:#181818;stroke-width:0.5;" width="162.8916" x="740.8433" y="807.4883"/><text fill="#000000" font-family="sans-serif" font-size="14" lengthAdjust="spacing" textLength="142.8916" x="750.8433" y="831.0234">StarRocksDataSource</text></g><!--entity dsIB--><g class="entity" data-entity="dsIB" data-source-line="43" data-uid="ent0028" id="entity_dsIB"><rect fill="#F1F1F1" height="36.4883" rx="2.5" ry="2.5" style="stroke:#181818;stroke-width:0.5;" width="146.7861" x="921.8433" y="807.4883"/><text fill="#000000" font-family="sans-serif" font-size="14" lengthAdjust="spacing" textLength="126.7861" x="931.8433" y="831.0234">IcebergDataSource</text></g><!--entity dsOS--><g class="entity" data-entity="dsOS" data-source-line="44" data-uid="ent0029" id="entity_dsOS"><rect fill="#F1F1F1" height="36.4883" rx="2.5" ry="2.5" style="stroke:#181818;stroke-width:0.5;" width="177.5479" x="544.3433" y="807.4883"/><text fill="#000000" font-family="sans-serif" font-size="14" lengthAdjust="spacing" textLength="157.5479" x="554.3433" y="831.0234">OpenSearchDataSource</text></g><g class="link" data-entity-1="baseEntry" data-entity-2="cgrav" data-uid="lnk10" id="link_baseEntry_cgrav"><polygon fill="none" points="1156.4418,211.7848,1162.7715,229.6715,1172.2376,222.2963,1156.4418,211.7848" style="stroke:#181818;stroke-width:1;"/><path d="M1167.5045,225.9839 C1186.4828,250.3426 1203.3566,272.0002 1219.816,293.1259" fill="none" style="stroke:#181818;stroke-width:1;"/></g><g class="link" data-entity-1="baseEntry" data-entity-2="cice" data-uid="lnk11" id="link_baseEntry_cice"><polygon fill="none" points="1206.4051,211.5242,1220.8032,223.8812,1225.3378,212.7709,1206.4051,211.5242" style="stroke:#181818;stroke-width:1;"/><path d="M1223.0705,218.326 C1253.0102,230.5458 1271.0658,239.708 1300.3433,257.9883 C1316.6142,268.1475 1333.0953,282.3295 1344.9712,293.3928" fill="none" style="stroke:#181818;stroke-width:1;"/></g><g class="link" data-entity-1="baseEntry" data-entity-2="cint" data-uid="lnk12" id="link_baseEntry_cint"><polygon fill="none" points="1129.5057,211.7848,1119.0941,227.6467,1130.6936,230.7212,1129.5057,211.7848" style="stroke:#181818;stroke-width:1;"/><path d="M1124.8938,229.1839 C1118.4373,253.5426 1113.5449,272.0002 1107.9454,293.1259" fill="none" style="stroke:#181818;stroke-width:1;"/></g><g class="link" data-entity-1="factory" data-entity-2="baseDS" data-uid="lnk30" id="link_factory_baseDS"><polygon fill="#181818" points="701.0938,717.3354,697.4529,708.1843,697.5179,713.8407,691.8614,713.9058,701.0938,717.3354" style="stroke:#181818;stroke-width:1;"/><path d="M635.0167,652.76 C652.8717,670.2092 676.3728,693.1762 696.8027,713.1418" fill="none" style="stroke:#181818;stroke-width:1;"/><text fill="#000000" font-family="sans-serif" font-size="13" lengthAdjust="spacing" textLength="121.6211" x="684.3433" y="695.0566">create(type, config)</text></g><g class="link" data-entity-1="baseDS" data-entity-2="dsSR" data-uid="lnk31" id="link_baseDS_dsSR"><polygon fill="none" points="757.9248,770.5802,767.8783,786.7334,775.5796,777.5307,757.9248,770.5802" style="stroke:#181818;stroke-width:1;"/><path d="M771.7289,782.1321 C786.1571,794.2062 789.1768,796.7331 802.0126,807.4747" fill="none" style="stroke:#181818;stroke-width:1;"/></g><g class="link" data-entity-1="baseDS" data-entity-2="dsIB" data-uid="lnk32" id="link_baseDS_dsIB"><polygon fill="none" points="804.1413,767.7698,819.6917,778.6411,823.1044,767.1366,804.1413,767.7698" style="stroke:#181818;stroke-width:1;"/><path d="M821.3981,772.8889 C863.9336,785.5067 898.6791,795.8137 937.7078,807.3912" fill="none" style="stroke:#181818;stroke-width:1;"/></g><g class="link" data-entity-1="baseDS" data-entity-2="dsOS" data-uid="lnk33" id="link_baseDS_dsOS"><polygon fill="none" points="697.0837,770.5802,679.4654,777.6226,687.2145,786.7851,697.0837,770.5802" style="stroke:#181818;stroke-width:1;"/><path d="M683.34,782.2039 C669.0637,794.278 666.1607,796.7331 653.46,807.4747" fill="none" style="stroke:#181818;stroke-width:1;"/></g><g class="link" data-entity-1="app" data-entity-2="baseEntry" data-uid="lnk34" id="link_app_baseEntry"><polygon fill="#181818" points="1096.7479,158.3521,1090.9754,150.3722,1092.4246,155.8403,1086.9565,157.2895,1096.7479,158.3521" style="stroke:#181818;stroke-width:1;"/><path d="M869.6263,104.4974 C879.7317,107.4583 890.3124,110.2885 900.3433,112.4883 C961.2481,125.845 980.0778,112.1131 1039.3433,131.4883 C1059.1821,137.974 1074.524,145.4403 1091.5599,155.3379" fill="none" style="stroke:#181818;stroke-width:1;"/></g><g class="link" data-entity-1="baseEntry" data-entity-2="mapping" data-uid="lnk35" id="link_baseEntry_mapping"><polygon fill="#181818" points="940.6789,284.8363,950.4363,283.4973,944.9294,282.2033,946.2234,276.6964,940.6789,284.8363" style="stroke:#181818;stroke-width:1;"/><path d="M1075.1024,211.5783 C1061.5361,217.6412 1047.3354,224.2989 1034.3433,230.9883 C1002.117,247.5809 972.014,265.4254 945.7795,281.6767" fill="none" style="stroke:#181818;stroke-width:1;"/><text fill="#000000" font-family="sans-serif" font-size="13" lengthAdjust="spacing" textLength="78" x="1036.3433" y="245.5566">&#32479;&#19968;&#27169;&#26495;&#27969;&#31243;</text></g><g class="link" data-entity-1="mapping" data-entity-2="application" data-uid="lnk36" id="link_mapping_application"><polygon fill="#181818" points="792.1365,392.6975,801.7487,390.5515,796.1533,389.7201,796.9847,384.1246,792.1365,392.6975" style="stroke:#181818;stroke-width:1;"/><path d="M865.727,338.1479 C843.4091,354.6912 819.3092,372.5555 796.9566,389.1246" fill="none" style="stroke:#181818;stroke-width:1;"/></g><g class="link" data-entity-1="application" data-entity-2="domain" data-uid="lnk37" id="link_application_domain"><polygon fill="#181818" points="751.4761,491.2617,756.206,482.623,751.8892,486.2788,748.2333,481.962,751.4761,491.2617" style="stroke:#181818;stroke-width:1;"/><path d="M755.2204,446.0952 C754.0632,460.0544 753.1306,471.3044 751.9718,485.2823" fill="none" style="stroke:#181818;stroke-width:1;"/></g><g class="link" data-entity-1="application" data-entity-2="qplanner" data-uid="lnk38" id="link_application_qplanner"><polygon fill="#181818" points="480.4192,499.9471,490.0123,497.7173,484.4098,496.9347,485.1924,491.3322,480.4192,499.9471" style="stroke:#181818;stroke-width:1;"/><path d="M667.7356,430.6009 C627.7206,437.0871 580.6127,447.5001 540.3433,463.9883 C518.4147,472.9669 500.8585,484.5181 485.208,496.3322" fill="none" style="stroke:#181818;stroke-width:1;"/></g><g class="link" data-entity-1="application" data-entity-2="events" data-uid="lnk39" id="link_application_events"><polygon fill="#181818" points="889.6686,491.4293,883.6265,483.6515,885.2619,489.0669,879.8466,490.7022,889.6686,491.4293" style="stroke:#181818;stroke-width:1;"/><path d="M805.1074,446.0952 C831.2496,460.1103 858.2524,474.5868 884.3805,488.5944" fill="none" style="stroke:#181818;stroke-width:1;"/></g><g class="link" data-entity-1="application" data-entity-2="factory" data-uid="lnk40" id="link_application_factory"><polygon fill="#181818" points="602.0667,616.3254,599.4012,606.8441,598.8752,612.4765,593.2428,611.9505,602.0667,616.3254" style="stroke:#181818;stroke-width:1;"/><path d="M667.6108,434.0047 C623.3476,442.6962 576.6238,455.6361 563.3433,472.9883 C529.215,517.5799 572.2422,580.357 598.2369,611.7067" fill="none" style="stroke:#181818;stroke-width:1;"/><text fill="#000000" font-family="sans-serif" font-size="13" lengthAdjust="spacing" textLength="91" x="565.3433" y="523.0566">&#33719;&#21462;&#35835;&#20889;&#25968;&#25454;&#28304;</text></g><g class="link" data-entity-1="worker" data-entity-2="events" data-uid="lnk41" id="link_worker_events"><polygon fill="#181818" points="1024.9041,509.1329,1034.2512,512.2364,1029.8803,508.6454,1033.4713,504.2745,1024.9041,509.1329" style="stroke:#181818;stroke-width:1;"/><path d="M1081.5131,91.1952 C1199.8995,97.0496 1401.2503,110.0299 1427.3433,131.4883 C1446.1835,146.9821 1443.3433,159.5954 1443.3433,183.9883 C1443.3433,183.9883 1443.3433,183.9883 1443.3433,420.4883 C1443.3433,462.5765 1175.6993,494.3621 1030.8755,508.5479" fill="none" style="stroke:#181818;stroke-width:1;"/></g><g class="link" data-entity-1="worker" data-entity-2="indexmodel" data-uid="lnk42" id="link_worker_indexmodel"><polygon fill="#181818" points="391.7767,607.7639,385.4699,600.1993,387.2911,605.5549,381.9355,607.3762,391.7767,607.7639" style="stroke:#181818;stroke-width:1;"/><path d="M936.5465,104.5314 C924.3337,107.5819 911.4854,110.4374 899.3433,112.4883 C801.1938,129.0664 6.3433,84.4485 6.3433,183.9883 C6.3433,183.9883 6.3433,183.9883 6.3433,518.9883 C6.3433,669.9338 -15.6274,484.3956 346.3433,589.4883 C361.6791,593.9408 372.228,598.1368 386.394,605.1131" fill="none" style="stroke:#181818;stroke-width:1;"/></g><g class="link" data-entity-1="worker" data-entity-2="factory" data-uid="lnk43" id="link_worker_factory"><polygon fill="#181818" points="690.6347,631.4329,699.7606,635.1368,695.6321,631.2696,699.4993,627.1411,690.6347,631.4329" style="stroke:#181818;stroke-width:1;"/><path d="M1081.5229,89.3097 C1167.8875,92.3673 1304.3128,100.5566 1420.3433,122.4883 C1434.0215,125.0737 1439.3842,122.9048 1450.3433,131.4883 C1471.6762,148.1969 1481.3433,156.8908 1481.3433,183.9883 C1481.3433,183.9883 1481.3433,183.9883 1481.3433,518.9883 C1481.3433,598.4741 905.2513,624.4202 696.6315,631.2369" fill="none" style="stroke:#181818;stroke-width:1;"/><text fill="#000000" font-family="sans-serif" font-size="13" lengthAdjust="spacing" textLength="91" x="1483.3433" y="370.5566">&#33719;&#21462;&#32034;&#24341;&#25968;&#25454;&#28304;</text></g><g class="link" data-entity-1="qplanner" data-entity-2="indexmodel" data-uid="lnk44" id="link_qplanner_indexmodel"><polygon fill="#181818" points="442.2702,607.8457,447.8966,599.7621,443.2137,602.9355,440.0403,598.2526,442.2702,607.8457" style="stroke:#181818;stroke-width:1;"/><path d="M456.002,536.3784 C452.3478,555.3968 447.5872,580.1736 443.4024,601.9535" fill="none" style="stroke:#181818;stroke-width:1;"/></g><g class="link" data-entity-1="qplanner" data-entity-2="factory" data-uid="lnk45" id="link_qplanner_factory"><polygon fill="#181818" points="586.7229,616.4212,580.6909,608.6357,582.3192,614.0531,576.9018,615.6815,586.7229,616.4212" style="stroke:#181818;stroke-width:1;"/><path d="M469.5247,536.0043 C478.6507,549.957 493.2164,569.3239 510.3433,581.4883 C518.8257,587.5129 522.8148,585.3104 532.3433,589.4883 C550.7574,597.5622 565.4694,604.9917 581.4385,613.5795" fill="none" style="stroke:#181818;stroke-width:1;"/><text fill="#000000" font-family="sans-serif" font-size="13" lengthAdjust="spacing" textLength="26" x="512.3433" y="577.0566">&#22238;&#28304;</text></g><g class="link" data-entity-1="indexmodel" data-entity-2="template" data-uid="lnk46" id="link_indexmodel_template"><polygon fill="#181818" points="437.3433,725.8329,441.3433,716.8329,437.3433,720.8329,433.3433,716.8329,437.3433,725.8329" style="stroke:#181818;stroke-width:1;"/><path d="M437.3433,661.2372 C437.3433,681.2383 437.3433,702.4162 437.3433,719.8329" fill="none" style="stroke:#181818;stroke-width:1;"/></g><g class="link" data-entity-1="template" data-entity-2="governance" data-uid="lnk47" id="link_template_governance"><polygon fill="#181818" points="437.3433,807.2716,441.3433,798.2716,437.3433,802.2716,433.3433,798.2716,437.3433,807.2716" style="stroke:#181818;stroke-width:1;"/><path d="M437.3433,762.2386 C437.3433,775.5734 437.3433,787.9453 437.3433,801.2716" fill="none" style="stroke:#181818;stroke-width:1;"/></g><g class="link" data-entity-1="governance" data-entity-2="lifecycle" data-uid="lnk48" id="link_governance_lifecycle"><polygon fill="#181818" points="437.3433,880.3124,441.3433,871.3124,437.3433,875.3124,433.3433,871.3124,437.3433,880.3124" style="stroke:#181818;stroke-width:1;"/><path d="M437.3433,843.7386 C437.3433,854.4247 437.3433,862.3456 437.3433,874.3124" fill="none" style="stroke:#181818;stroke-width:1;"/></g><!--SRC=[TLPTSnir57tVNo7o10CUtZiXCq0Aqs6O3FKZuK5UoyvETgNjhf8s0yoaANQTfiv7YGCbRKfQGWoKD9cq9BLTvxzqhBNpbB_GkvBsmnlpOA_stdEFZdJlbVOzryDb1oCRBx0vZdo7S4onmIrk4oGwYs9jOx1V5TlTYyvlmRqtWwDTKTaJQy_wxVrW-QptvkV-SRjtkXeq3eFwGT1Q5oTxOdN9C3Xp4MUem3Xd3YfQ7Z6vnQZXprhKnHvsa3-3Y-ocHSkeX6sVf3mkDcTncUJv0cW80p4jssc0oHoNKK9v5cBeK3GMhgE8ESuL6EC-zx0xXhut4FesTc3NWf_x7S8-WkUGxoRpPeaNkzMhyUCeVb3XBIZkM1OQ-xGGpcdohpNiQeYQfkFZM3ic9iP2vWBsYVGDXt_fuNcBMvHTLUo0DCjW6qPTCqc1UEKKnZ991a8vyIYsqnZA0HDFZCP_oELYzgnP4Lwo0iN8pJ2PHouwjTvflTTzF7Yr9IedOObiFWaMRui7z-CgkUWiPzDHP0wsw3GLrShvdMRGt1KxA-XZDDZ_ITGUmg1_r0QBJ8U2PfBfsfQ9mnARffypny6q247Vp14GtTzizhehKQ8Zt52y0muenMcgjRvu3PMEtbOtKLgFfD3GeN0o3xljW_YrNuFjbxtMIg_z7qm_DSSBx1OIUnlzrfyoM057RvvFi6VEw7sv4IhFkJQcb7Woz8P-2RqMBP9REOSLYGsJLlw5pUc_V2ewZM3hRh3xBALM8YKmYUF40IvE921waUjHIykLsNnODTHKaEGruR2j4Z4NJ9l0_BL_n7ezJD5oBNZq70RdT-kYtPAnCMxqciC_dyrv9hdKGfFWoalN5z0lJ9TlIOr7TriIyZ-jDfaV3inpx5rdvgoVH4fiqSzV7zbhbt3NFXl6JRc4vcKYBq6dmicrVfJBJMX5w0eoFG8PU9ylkEGZ8ACbg_o1RZlmovxJYePDSl9X4qm26mrvZ6TGnqlImg5T9ngcxhUVz4uNeM22nsV1gzlzveeHEKDWkbzIO-dJRPWrntMQTUZQpvgZ7Rc21gidOcrhyA8jgW_Zey9GXs-Q8ML9bNVAcgNKlH5JHXAp54FsX4HixuHH2L3wuyQ91jAQwfLaA3r99nYK0Tec9OvOAPKZTRC6ot-9euOwz-3IDOAjG_5qHvrBw1EaBbwTDdaXG_EZ3v4usEcl7egJ0z5P2hPU1ySDu7ikAaUAzNonFUXkmC4ikh-8HqrrC6iNTEiVTHLl43WtGtbQf6ULPwJAgEz4go6EbaPhZ3SOP2ewBJEoAxqWDZXkYkfzKJlKdmkzqtl0AjR-rjU6j8ONHhH0ECwoqgBzqsMe8c7bOdq39AcbAHLm8YNV9yhojle0AVBmu-NtKt5snr0FlKMT1jmQwUihgEdRB5bbVlAhMDGx]--></g></svg>